G04 EAGLE Gerber RS-274X export*
G75*
%MOMM*%
%FSLAX34Y34*%
%LPD*%
%INTop Copper*%
%IPPOS*%
%AMOC8*
5,1,8,0,0,1.08239X$1,22.5*%
G01*
%ADD10P,1.732040X8X112.500000*%
%ADD11P,1.732040X8X292.500000*%
%ADD12C,1.905000*%
%ADD13P,2.061953X8X292.500000*%
%ADD14P,2.061953X8X112.500000*%
%ADD15R,3.000000X3.000000*%
%ADD16C,3.000000*%
%ADD17C,2.184400*%
%ADD18R,2.540000X2.540000*%
%ADD19C,2.540000*%
%ADD20C,3.810000*%
%ADD21P,2.089446X8X112.500000*%
%ADD22P,2.089446X8X202.500000*%
%ADD23P,2.089446X8X22.500000*%
%ADD24R,1.388000X1.388000*%
%ADD25C,1.388000*%
%ADD26C,2.000000*%
%ADD27C,1.000000*%
%ADD28C,2.000000*%

G36*
X1209098Y45164D02*
X1209098Y45164D01*
X1209117Y45162D01*
X1209219Y45184D01*
X1209321Y45200D01*
X1209338Y45210D01*
X1209358Y45214D01*
X1209447Y45267D01*
X1209538Y45316D01*
X1209552Y45330D01*
X1209569Y45340D01*
X1209636Y45419D01*
X1209708Y45494D01*
X1209716Y45512D01*
X1209729Y45527D01*
X1209768Y45623D01*
X1209811Y45717D01*
X1209813Y45737D01*
X1209821Y45755D01*
X1209839Y45922D01*
X1209839Y789078D01*
X1209836Y789098D01*
X1209838Y789117D01*
X1209816Y789219D01*
X1209800Y789321D01*
X1209790Y789338D01*
X1209786Y789358D01*
X1209733Y789447D01*
X1209684Y789538D01*
X1209670Y789552D01*
X1209660Y789569D01*
X1209581Y789636D01*
X1209506Y789708D01*
X1209488Y789716D01*
X1209473Y789729D01*
X1209377Y789768D01*
X1209283Y789811D01*
X1209263Y789813D01*
X1209245Y789821D01*
X1209078Y789839D01*
X235922Y789839D01*
X235902Y789836D01*
X235883Y789838D01*
X235781Y789816D01*
X235679Y789800D01*
X235662Y789790D01*
X235642Y789786D01*
X235553Y789733D01*
X235462Y789684D01*
X235448Y789670D01*
X235431Y789660D01*
X235364Y789581D01*
X235292Y789506D01*
X235284Y789488D01*
X235271Y789473D01*
X235232Y789377D01*
X235189Y789283D01*
X235187Y789263D01*
X235179Y789245D01*
X235161Y789078D01*
X235161Y45922D01*
X235164Y45902D01*
X235162Y45883D01*
X235184Y45781D01*
X235200Y45679D01*
X235210Y45662D01*
X235214Y45642D01*
X235267Y45553D01*
X235316Y45462D01*
X235330Y45448D01*
X235340Y45431D01*
X235419Y45364D01*
X235494Y45292D01*
X235512Y45284D01*
X235527Y45271D01*
X235623Y45232D01*
X235717Y45189D01*
X235737Y45187D01*
X235755Y45179D01*
X235922Y45161D01*
X1209078Y45161D01*
X1209098Y45164D01*
G37*
%LPC*%
G36*
X525100Y416819D02*
X525100Y416819D01*
X519557Y419115D01*
X499215Y439457D01*
X496919Y445000D01*
X496919Y556258D01*
X496916Y556278D01*
X496918Y556297D01*
X496896Y556399D01*
X496880Y556501D01*
X496870Y556518D01*
X496866Y556538D01*
X496813Y556627D01*
X496764Y556718D01*
X496750Y556732D01*
X496740Y556749D01*
X496661Y556816D01*
X496586Y556888D01*
X496568Y556896D01*
X496553Y556909D01*
X496457Y556948D01*
X496363Y556991D01*
X496343Y556993D01*
X496325Y557001D01*
X496158Y557019D01*
X350907Y557019D01*
X350842Y557009D01*
X350776Y557008D01*
X350696Y556985D01*
X350664Y556980D01*
X350647Y556970D01*
X350615Y556961D01*
X344237Y554319D01*
X337163Y554319D01*
X330628Y557026D01*
X325626Y562028D01*
X322919Y568563D01*
X322919Y575637D01*
X325626Y582172D01*
X330628Y587174D01*
X337163Y589881D01*
X344237Y589881D01*
X350615Y587239D01*
X350679Y587224D01*
X350740Y587199D01*
X350823Y587190D01*
X350855Y587183D01*
X350874Y587184D01*
X350907Y587181D01*
X508366Y587181D01*
X508431Y587191D01*
X508496Y587192D01*
X508576Y587215D01*
X508609Y587220D01*
X508626Y587230D01*
X508657Y587239D01*
X509000Y587381D01*
X515000Y587381D01*
X520543Y585085D01*
X524785Y580843D01*
X527081Y575300D01*
X527081Y454562D01*
X527095Y454472D01*
X527103Y454381D01*
X527115Y454351D01*
X527120Y454319D01*
X527163Y454239D01*
X527199Y454155D01*
X527225Y454123D01*
X527236Y454102D01*
X527259Y454080D01*
X527304Y454024D01*
X534124Y447204D01*
X534198Y447151D01*
X534267Y447091D01*
X534297Y447079D01*
X534323Y447060D01*
X534410Y447033D01*
X534495Y446999D01*
X534536Y446995D01*
X534559Y446988D01*
X534591Y446989D01*
X534662Y446981D01*
X542054Y446981D01*
X542125Y446992D01*
X542197Y446994D01*
X542245Y447012D01*
X542297Y447020D01*
X542360Y447054D01*
X542428Y447079D01*
X542468Y447111D01*
X542514Y447136D01*
X542564Y447188D01*
X542620Y447232D01*
X542648Y447276D01*
X542684Y447314D01*
X542714Y447379D01*
X542753Y447439D01*
X542765Y447490D01*
X542787Y447537D01*
X542795Y447608D01*
X542813Y447678D01*
X542809Y447730D01*
X542814Y447781D01*
X542799Y447852D01*
X542793Y447923D01*
X542773Y447971D01*
X542762Y448022D01*
X542725Y448083D01*
X542697Y448149D01*
X542652Y448205D01*
X542636Y448233D01*
X542618Y448248D01*
X542592Y448280D01*
X542115Y448757D01*
X539819Y454300D01*
X539819Y485700D01*
X542115Y491243D01*
X545734Y494862D01*
X545746Y494878D01*
X545762Y494890D01*
X545818Y494978D01*
X545878Y495061D01*
X545884Y495080D01*
X545895Y495097D01*
X545920Y495198D01*
X545950Y495297D01*
X545950Y495316D01*
X545955Y495336D01*
X545947Y495439D01*
X545944Y495542D01*
X545937Y495561D01*
X545935Y495581D01*
X545895Y495676D01*
X545859Y495773D01*
X545847Y495789D01*
X545839Y495807D01*
X545734Y495938D01*
X542115Y499557D01*
X539819Y505100D01*
X539819Y573638D01*
X539805Y573728D01*
X539797Y573819D01*
X539785Y573849D01*
X539780Y573881D01*
X539737Y573961D01*
X539701Y574045D01*
X539675Y574077D01*
X539664Y574098D01*
X539641Y574120D01*
X539596Y574176D01*
X506176Y607596D01*
X506102Y607649D01*
X506033Y607709D01*
X506003Y607721D01*
X505977Y607740D01*
X505890Y607767D01*
X505805Y607801D01*
X505764Y607805D01*
X505741Y607812D01*
X505709Y607811D01*
X505638Y607819D01*
X358520Y607819D01*
X358430Y607805D01*
X358339Y607797D01*
X358309Y607785D01*
X358277Y607780D01*
X358196Y607737D01*
X358113Y607701D01*
X358080Y607675D01*
X358060Y607664D01*
X358038Y607641D01*
X357982Y607596D01*
X355505Y605119D01*
X325895Y605119D01*
X322919Y608095D01*
X322919Y637705D01*
X325895Y640681D01*
X355505Y640681D01*
X357982Y638204D01*
X358055Y638151D01*
X358125Y638091D01*
X358155Y638079D01*
X358181Y638060D01*
X358268Y638033D01*
X358353Y637999D01*
X358394Y637995D01*
X358416Y637988D01*
X358449Y637989D01*
X358520Y637981D01*
X508366Y637981D01*
X508431Y637991D01*
X508496Y637992D01*
X508576Y638015D01*
X508609Y638020D01*
X508626Y638030D01*
X508657Y638039D01*
X509000Y638181D01*
X515000Y638181D01*
X520543Y635885D01*
X567685Y588743D01*
X569981Y583200D01*
X569981Y505100D01*
X567685Y499557D01*
X567208Y499080D01*
X567166Y499022D01*
X567116Y498970D01*
X567094Y498923D01*
X567064Y498881D01*
X567043Y498812D01*
X567013Y498747D01*
X567007Y498695D01*
X566992Y498645D01*
X566994Y498574D01*
X566986Y498503D01*
X566997Y498452D01*
X566998Y498400D01*
X567023Y498332D01*
X567038Y498262D01*
X567065Y498217D01*
X567083Y498169D01*
X567127Y498113D01*
X567164Y498051D01*
X567204Y498017D01*
X567236Y497977D01*
X567297Y497938D01*
X567351Y497891D01*
X567399Y497872D01*
X567443Y497844D01*
X567513Y497826D01*
X567579Y497799D01*
X567651Y497791D01*
X567682Y497783D01*
X567705Y497785D01*
X567746Y497781D01*
X583430Y497781D01*
X583520Y497795D01*
X583611Y497803D01*
X583641Y497815D01*
X583673Y497820D01*
X583754Y497863D01*
X583838Y497899D01*
X583870Y497925D01*
X583885Y497933D01*
X586009Y497933D01*
X586073Y497943D01*
X586139Y497944D01*
X586219Y497967D01*
X586251Y497972D01*
X586269Y497982D01*
X586300Y497991D01*
X587000Y498281D01*
X593000Y498281D01*
X593700Y497991D01*
X593764Y497976D01*
X593825Y497951D01*
X593907Y497942D01*
X593939Y497935D01*
X593959Y497936D01*
X593991Y497933D01*
X596102Y497933D01*
X597595Y496440D01*
X597649Y496402D01*
X597695Y496356D01*
X597768Y496316D01*
X597795Y496296D01*
X597814Y496291D01*
X597842Y496275D01*
X598543Y495985D01*
X602785Y491743D01*
X603075Y491042D01*
X603109Y490987D01*
X603135Y490926D01*
X603187Y490861D01*
X603204Y490833D01*
X603220Y490821D01*
X603240Y490795D01*
X604733Y489302D01*
X604733Y487191D01*
X604743Y487127D01*
X604744Y487061D01*
X604767Y486981D01*
X604772Y486949D01*
X604782Y486931D01*
X604791Y486900D01*
X605081Y486200D01*
X605081Y480200D01*
X604791Y479500D01*
X604776Y479436D01*
X604751Y479375D01*
X604742Y479293D01*
X604735Y479261D01*
X604736Y479241D01*
X604733Y479209D01*
X604733Y477098D01*
X603240Y475605D01*
X603202Y475551D01*
X603156Y475505D01*
X603116Y475432D01*
X603096Y475405D01*
X603091Y475386D01*
X603075Y475358D01*
X602785Y474657D01*
X598043Y469915D01*
X597342Y469625D01*
X597287Y469591D01*
X597226Y469565D01*
X597161Y469513D01*
X597133Y469496D01*
X597121Y469480D01*
X597095Y469460D01*
X596102Y468467D01*
X594698Y468467D01*
X594634Y468457D01*
X594568Y468456D01*
X594488Y468433D01*
X594456Y468428D01*
X594439Y468418D01*
X594407Y468409D01*
X592500Y467619D01*
X570742Y467619D01*
X570722Y467616D01*
X570703Y467618D01*
X570601Y467596D01*
X570499Y467580D01*
X570482Y467570D01*
X570462Y467566D01*
X570373Y467513D01*
X570282Y467464D01*
X570268Y467450D01*
X570251Y467440D01*
X570184Y467361D01*
X570112Y467286D01*
X570104Y467268D01*
X570091Y467253D01*
X570052Y467157D01*
X570009Y467063D01*
X570007Y467043D01*
X569999Y467025D01*
X569981Y466858D01*
X569981Y454300D01*
X567685Y448757D01*
X564066Y445138D01*
X564054Y445122D01*
X564038Y445110D01*
X563982Y445022D01*
X563922Y444939D01*
X563916Y444920D01*
X563905Y444903D01*
X563880Y444802D01*
X563850Y444703D01*
X563850Y444684D01*
X563845Y444664D01*
X563853Y444561D01*
X563856Y444458D01*
X563863Y444439D01*
X563865Y444419D01*
X563905Y444324D01*
X563941Y444227D01*
X563953Y444211D01*
X563961Y444193D01*
X564066Y444062D01*
X567685Y440443D01*
X569981Y434900D01*
X569981Y428900D01*
X567685Y423357D01*
X563443Y419115D01*
X557900Y416819D01*
X525100Y416819D01*
G37*
%LPD*%
%LPC*%
G36*
X778950Y547169D02*
X778950Y547169D01*
X770081Y550843D01*
X765228Y555696D01*
X765154Y555749D01*
X765084Y555809D01*
X765054Y555821D01*
X765028Y555840D01*
X764941Y555867D01*
X764856Y555901D01*
X764815Y555905D01*
X764793Y555912D01*
X764761Y555911D01*
X764689Y555919D01*
X711742Y555919D01*
X711722Y555916D01*
X711703Y555918D01*
X711601Y555896D01*
X711499Y555880D01*
X711482Y555870D01*
X711462Y555866D01*
X711373Y555813D01*
X711282Y555764D01*
X711268Y555750D01*
X711251Y555740D01*
X711184Y555661D01*
X711112Y555586D01*
X711104Y555568D01*
X711091Y555553D01*
X711052Y555457D01*
X711009Y555363D01*
X711007Y555343D01*
X710999Y555325D01*
X710981Y555158D01*
X710981Y553895D01*
X708005Y550919D01*
X673795Y550919D01*
X670819Y553895D01*
X670819Y588105D01*
X673795Y591081D01*
X674958Y591081D01*
X674978Y591084D01*
X674997Y591082D01*
X675099Y591104D01*
X675201Y591120D01*
X675218Y591130D01*
X675238Y591134D01*
X675327Y591187D01*
X675418Y591236D01*
X675432Y591250D01*
X675449Y591260D01*
X675516Y591339D01*
X675588Y591414D01*
X675596Y591432D01*
X675609Y591447D01*
X675648Y591543D01*
X675691Y591637D01*
X675693Y591657D01*
X675701Y591675D01*
X675719Y591842D01*
X675719Y619638D01*
X675705Y619728D01*
X675697Y619819D01*
X675685Y619849D01*
X675680Y619881D01*
X675637Y619961D01*
X675601Y620045D01*
X675575Y620077D01*
X675564Y620098D01*
X675541Y620120D01*
X675496Y620176D01*
X654215Y641457D01*
X654203Y641486D01*
X654165Y641547D01*
X654136Y641613D01*
X654101Y641651D01*
X654074Y641695D01*
X654018Y641741D01*
X653970Y641794D01*
X653924Y641819D01*
X653884Y641852D01*
X653817Y641878D01*
X653754Y641912D01*
X653703Y641922D01*
X653655Y641940D01*
X653583Y641943D01*
X653512Y641956D01*
X653461Y641948D01*
X653409Y641951D01*
X653340Y641931D01*
X653269Y641920D01*
X653223Y641897D01*
X653173Y641882D01*
X653114Y641841D01*
X653050Y641809D01*
X653013Y641771D01*
X652971Y641742D01*
X652928Y641684D01*
X652877Y641633D01*
X652843Y641570D01*
X652824Y641544D01*
X652817Y641522D01*
X652797Y641486D01*
X652785Y641457D01*
X648543Y637215D01*
X643000Y634919D01*
X637000Y634919D01*
X631457Y637215D01*
X627215Y641457D01*
X627203Y641486D01*
X627165Y641547D01*
X627136Y641613D01*
X627101Y641651D01*
X627074Y641695D01*
X627018Y641741D01*
X626970Y641794D01*
X626924Y641819D01*
X626884Y641852D01*
X626817Y641878D01*
X626754Y641912D01*
X626703Y641922D01*
X626655Y641940D01*
X626583Y641943D01*
X626512Y641956D01*
X626461Y641948D01*
X626409Y641951D01*
X626340Y641931D01*
X626269Y641920D01*
X626223Y641897D01*
X626173Y641882D01*
X626114Y641841D01*
X626050Y641809D01*
X626013Y641771D01*
X625971Y641742D01*
X625928Y641684D01*
X625877Y641633D01*
X625843Y641570D01*
X625824Y641544D01*
X625817Y641522D01*
X625797Y641486D01*
X625785Y641457D01*
X621436Y637108D01*
X621435Y637108D01*
X604504Y620176D01*
X604451Y620102D01*
X604391Y620033D01*
X604379Y620003D01*
X604360Y619977D01*
X604333Y619890D01*
X604299Y619805D01*
X604295Y619764D01*
X604288Y619741D01*
X604289Y619709D01*
X604281Y619638D01*
X604281Y591670D01*
X604295Y591580D01*
X604303Y591489D01*
X604315Y591459D01*
X604320Y591427D01*
X604363Y591346D01*
X604399Y591262D01*
X604425Y591230D01*
X604436Y591210D01*
X604459Y591187D01*
X604504Y591132D01*
X604733Y590902D01*
X604733Y588791D01*
X604743Y588727D01*
X604744Y588661D01*
X604767Y588581D01*
X604772Y588549D01*
X604782Y588531D01*
X604791Y588500D01*
X605081Y587800D01*
X605081Y581800D01*
X604791Y581100D01*
X604776Y581036D01*
X604751Y580975D01*
X604742Y580893D01*
X604735Y580861D01*
X604736Y580841D01*
X604733Y580809D01*
X604733Y578698D01*
X603240Y577205D01*
X603202Y577151D01*
X603156Y577105D01*
X603116Y577032D01*
X603096Y577005D01*
X603091Y576986D01*
X603075Y576958D01*
X602785Y576257D01*
X598543Y572015D01*
X597842Y571725D01*
X597787Y571691D01*
X597726Y571665D01*
X597661Y571613D01*
X597633Y571596D01*
X597621Y571580D01*
X597595Y571560D01*
X596102Y570067D01*
X593991Y570067D01*
X593927Y570057D01*
X593861Y570056D01*
X593781Y570033D01*
X593749Y570028D01*
X593731Y570018D01*
X593700Y570009D01*
X593000Y569719D01*
X587000Y569719D01*
X586300Y570009D01*
X586236Y570024D01*
X586175Y570049D01*
X586093Y570058D01*
X586061Y570065D01*
X586041Y570064D01*
X586009Y570067D01*
X583898Y570067D01*
X582405Y571560D01*
X582351Y571598D01*
X582305Y571644D01*
X582232Y571684D01*
X582205Y571704D01*
X582186Y571709D01*
X582158Y571725D01*
X581457Y572015D01*
X576415Y577057D01*
X576125Y577758D01*
X576091Y577813D01*
X576065Y577874D01*
X576013Y577939D01*
X575996Y577967D01*
X575980Y577979D01*
X575960Y578005D01*
X575267Y578698D01*
X575267Y579677D01*
X575257Y579742D01*
X575256Y579808D01*
X575233Y579888D01*
X575228Y579920D01*
X575218Y579937D01*
X575209Y579969D01*
X574119Y582600D01*
X574119Y629200D01*
X576415Y634743D01*
X600108Y658435D01*
X600108Y658436D01*
X604457Y662785D01*
X610000Y665081D01*
X616000Y665081D01*
X621543Y662785D01*
X623620Y660708D01*
X623678Y660666D01*
X623730Y660616D01*
X623777Y660594D01*
X623819Y660564D01*
X623888Y660543D01*
X623953Y660513D01*
X624005Y660507D01*
X624055Y660492D01*
X624126Y660494D01*
X624197Y660486D01*
X624248Y660497D01*
X624300Y660498D01*
X624368Y660523D01*
X624438Y660538D01*
X624483Y660565D01*
X624531Y660583D01*
X624587Y660627D01*
X624649Y660664D01*
X624683Y660704D01*
X624723Y660736D01*
X624762Y660797D01*
X624809Y660851D01*
X624828Y660899D01*
X624856Y660943D01*
X624874Y661013D01*
X624901Y661079D01*
X624909Y661151D01*
X624917Y661182D01*
X624915Y661205D01*
X624919Y661246D01*
X624919Y693438D01*
X624905Y693528D01*
X624897Y693619D01*
X624885Y693649D01*
X624880Y693681D01*
X624837Y693761D01*
X624801Y693845D01*
X624775Y693877D01*
X624764Y693898D01*
X624741Y693920D01*
X624696Y693976D01*
X598576Y720096D01*
X598502Y720149D01*
X598433Y720209D01*
X598403Y720221D01*
X598377Y720240D01*
X598290Y720267D01*
X598205Y720301D01*
X598164Y720305D01*
X598141Y720312D01*
X598109Y720311D01*
X598038Y720319D01*
X583955Y720319D01*
X583858Y720304D01*
X583761Y720294D01*
X583738Y720284D01*
X583712Y720280D01*
X583626Y720234D01*
X583537Y720194D01*
X583517Y720177D01*
X583494Y720164D01*
X583427Y720094D01*
X583356Y720028D01*
X583343Y720005D01*
X583325Y719986D01*
X583284Y719898D01*
X583237Y719812D01*
X583232Y719787D01*
X583221Y719763D01*
X583211Y719666D01*
X583193Y719570D01*
X583197Y719544D01*
X583194Y719519D01*
X583215Y719423D01*
X583229Y719327D01*
X583241Y719304D01*
X583247Y719278D01*
X583296Y719195D01*
X583341Y719108D01*
X583359Y719089D01*
X583373Y719067D01*
X583447Y719004D01*
X583516Y718936D01*
X583545Y718920D01*
X583560Y718907D01*
X583590Y718895D01*
X583663Y718855D01*
X587920Y717091D01*
X593591Y711420D01*
X596661Y704010D01*
X596661Y695990D01*
X593591Y688580D01*
X587920Y682909D01*
X580510Y679839D01*
X572490Y679839D01*
X565080Y682909D01*
X559409Y688580D01*
X556339Y695990D01*
X556339Y704010D01*
X559409Y711420D01*
X565080Y717091D01*
X569337Y718855D01*
X569420Y718906D01*
X569506Y718952D01*
X569524Y718971D01*
X569546Y718984D01*
X569608Y719059D01*
X569675Y719130D01*
X569686Y719154D01*
X569703Y719174D01*
X569738Y719265D01*
X569779Y719353D01*
X569781Y719379D01*
X569791Y719403D01*
X569795Y719501D01*
X569806Y719597D01*
X569800Y719623D01*
X569801Y719649D01*
X569774Y719743D01*
X569753Y719838D01*
X569740Y719860D01*
X569733Y719885D01*
X569677Y719965D01*
X569627Y720049D01*
X569607Y720066D01*
X569592Y720087D01*
X569514Y720146D01*
X569440Y720209D01*
X569416Y720219D01*
X569395Y720234D01*
X569303Y720264D01*
X569212Y720301D01*
X569180Y720304D01*
X569161Y720310D01*
X569128Y720310D01*
X569045Y720319D01*
X358520Y720319D01*
X358430Y720305D01*
X358339Y720297D01*
X358309Y720285D01*
X358277Y720280D01*
X358196Y720237D01*
X358113Y720201D01*
X358080Y720175D01*
X358060Y720164D01*
X358038Y720141D01*
X357982Y720096D01*
X355505Y717619D01*
X325895Y717619D01*
X322919Y720595D01*
X322919Y750205D01*
X325895Y753181D01*
X355505Y753181D01*
X357982Y750704D01*
X358055Y750651D01*
X358125Y750591D01*
X358155Y750579D01*
X358181Y750560D01*
X358268Y750533D01*
X358353Y750499D01*
X358394Y750495D01*
X358416Y750488D01*
X358449Y750489D01*
X358520Y750481D01*
X607600Y750481D01*
X613143Y748185D01*
X652785Y708543D01*
X655081Y703000D01*
X655081Y661246D01*
X655092Y661175D01*
X655094Y661103D01*
X655112Y661055D01*
X655120Y661003D01*
X655154Y660940D01*
X655179Y660872D01*
X655211Y660832D01*
X655236Y660786D01*
X655288Y660736D01*
X655332Y660680D01*
X655376Y660652D01*
X655414Y660616D01*
X655479Y660586D01*
X655539Y660547D01*
X655590Y660535D01*
X655637Y660513D01*
X655708Y660505D01*
X655778Y660487D01*
X655830Y660491D01*
X655881Y660486D01*
X655952Y660501D01*
X656023Y660507D01*
X656071Y660527D01*
X656122Y660538D01*
X656183Y660575D01*
X656249Y660603D01*
X656305Y660648D01*
X656333Y660664D01*
X656348Y660682D01*
X656380Y660708D01*
X658457Y662785D01*
X664000Y665081D01*
X670000Y665081D01*
X675543Y662785D01*
X703585Y634743D01*
X705881Y629200D01*
X705881Y591842D01*
X705884Y591822D01*
X705882Y591803D01*
X705904Y591701D01*
X705920Y591599D01*
X705930Y591582D01*
X705934Y591562D01*
X705987Y591473D01*
X706036Y591382D01*
X706050Y591368D01*
X706060Y591351D01*
X706139Y591284D01*
X706214Y591212D01*
X706232Y591204D01*
X706247Y591191D01*
X706343Y591152D01*
X706437Y591109D01*
X706457Y591107D01*
X706475Y591099D01*
X706642Y591081D01*
X708005Y591081D01*
X710981Y588105D01*
X710981Y586842D01*
X710984Y586822D01*
X710982Y586803D01*
X711004Y586701D01*
X711020Y586599D01*
X711030Y586582D01*
X711034Y586562D01*
X711087Y586473D01*
X711136Y586382D01*
X711150Y586368D01*
X711160Y586351D01*
X711239Y586284D01*
X711314Y586212D01*
X711332Y586204D01*
X711347Y586191D01*
X711443Y586152D01*
X711537Y586109D01*
X711557Y586107D01*
X711575Y586099D01*
X711742Y586081D01*
X764089Y586081D01*
X764179Y586095D01*
X764270Y586103D01*
X764300Y586115D01*
X764332Y586120D01*
X764413Y586163D01*
X764497Y586199D01*
X764529Y586225D01*
X764550Y586236D01*
X764572Y586259D01*
X764628Y586304D01*
X770081Y591757D01*
X778950Y595431D01*
X788550Y595431D01*
X797419Y591757D01*
X804207Y584969D01*
X807881Y576100D01*
X807881Y566500D01*
X804207Y557631D01*
X797419Y550843D01*
X788550Y547169D01*
X778950Y547169D01*
G37*
%LPD*%
%LPC*%
G36*
X697000Y94919D02*
X697000Y94919D01*
X691457Y97215D01*
X666339Y122333D01*
X664043Y127876D01*
X664043Y170639D01*
X664029Y170730D01*
X664021Y170820D01*
X664009Y170850D01*
X664004Y170882D01*
X663961Y170963D01*
X663925Y171047D01*
X663899Y171079D01*
X663888Y171100D01*
X663865Y171122D01*
X663820Y171178D01*
X658667Y176331D01*
X654993Y185200D01*
X654993Y194800D01*
X658667Y203669D01*
X665455Y210457D01*
X674324Y214131D01*
X683924Y214131D01*
X692793Y210457D01*
X699581Y203669D01*
X703255Y194800D01*
X703255Y185200D01*
X699581Y176331D01*
X694428Y171178D01*
X694375Y171104D01*
X694315Y171034D01*
X694303Y171004D01*
X694284Y170978D01*
X694257Y170891D01*
X694223Y170806D01*
X694219Y170765D01*
X694212Y170743D01*
X694213Y170711D01*
X694205Y170639D01*
X694205Y137438D01*
X694219Y137348D01*
X694227Y137257D01*
X694239Y137227D01*
X694244Y137195D01*
X694287Y137115D01*
X694323Y137031D01*
X694349Y136999D01*
X694360Y136978D01*
X694383Y136956D01*
X694428Y136900D01*
X706024Y125304D01*
X706098Y125251D01*
X706167Y125191D01*
X706197Y125179D01*
X706223Y125160D01*
X706310Y125133D01*
X706395Y125099D01*
X706436Y125095D01*
X706459Y125088D01*
X706491Y125089D01*
X706562Y125081D01*
X943438Y125081D01*
X943528Y125095D01*
X943619Y125103D01*
X943649Y125115D01*
X943681Y125120D01*
X943761Y125163D01*
X943845Y125199D01*
X943877Y125225D01*
X943898Y125236D01*
X943908Y125246D01*
X943909Y125247D01*
X943923Y125261D01*
X943976Y125304D01*
X974696Y156024D01*
X974749Y156098D01*
X974809Y156167D01*
X974821Y156197D01*
X974840Y156223D01*
X974867Y156310D01*
X974901Y156395D01*
X974905Y156436D01*
X974912Y156459D01*
X974911Y156491D01*
X974919Y156562D01*
X974919Y174967D01*
X974905Y175057D01*
X974897Y175148D01*
X974885Y175178D01*
X974880Y175210D01*
X974837Y175290D01*
X974801Y175374D01*
X974775Y175406D01*
X974764Y175427D01*
X974741Y175449D01*
X974696Y175505D01*
X971976Y178225D01*
X968919Y185606D01*
X968919Y193594D01*
X971976Y200975D01*
X977625Y206624D01*
X985006Y209681D01*
X992994Y209681D01*
X1000375Y206624D01*
X1006024Y200975D01*
X1009081Y193594D01*
X1009081Y185606D01*
X1006024Y178225D01*
X1005304Y177505D01*
X1005251Y177431D01*
X1005191Y177362D01*
X1005179Y177332D01*
X1005160Y177306D01*
X1005133Y177219D01*
X1005099Y177134D01*
X1005095Y177093D01*
X1005088Y177070D01*
X1005089Y177038D01*
X1005081Y176967D01*
X1005081Y147000D01*
X1002785Y141457D01*
X958543Y97215D01*
X953000Y94919D01*
X697000Y94919D01*
G37*
%LPD*%
%LPC*%
G36*
X938006Y169519D02*
X938006Y169519D01*
X930625Y172576D01*
X924976Y178225D01*
X921919Y185606D01*
X921919Y193594D01*
X924976Y200975D01*
X926696Y202695D01*
X926749Y202769D01*
X926809Y202838D01*
X926821Y202868D01*
X926840Y202894D01*
X926867Y202981D01*
X926901Y203066D01*
X926905Y203107D01*
X926912Y203130D01*
X926911Y203162D01*
X926919Y203233D01*
X926919Y253900D01*
X928009Y256531D01*
X928018Y256568D01*
X928025Y256583D01*
X928027Y256602D01*
X928049Y256656D01*
X928058Y256739D01*
X928065Y256771D01*
X928064Y256790D01*
X928067Y256823D01*
X928067Y257802D01*
X928760Y258495D01*
X928798Y258548D01*
X928844Y258595D01*
X928884Y258668D01*
X928904Y258695D01*
X928909Y258714D01*
X928925Y258742D01*
X929215Y259443D01*
X929908Y260135D01*
X957992Y288220D01*
X958034Y288278D01*
X958084Y288330D01*
X958106Y288377D01*
X958136Y288419D01*
X958157Y288488D01*
X958187Y288553D01*
X958193Y288605D01*
X958208Y288655D01*
X958206Y288726D01*
X958214Y288797D01*
X958203Y288848D01*
X958202Y288900D01*
X958177Y288968D01*
X958162Y289038D01*
X958135Y289083D01*
X958117Y289131D01*
X958073Y289187D01*
X958036Y289249D01*
X957996Y289283D01*
X957964Y289323D01*
X957903Y289362D01*
X957849Y289409D01*
X957801Y289428D01*
X957757Y289456D01*
X957687Y289474D01*
X957621Y289501D01*
X957549Y289509D01*
X957518Y289517D01*
X957495Y289515D01*
X957454Y289519D01*
X895000Y289519D01*
X889457Y291815D01*
X885215Y296057D01*
X882919Y301600D01*
X882919Y307600D01*
X885215Y313143D01*
X889457Y317385D01*
X895000Y319681D01*
X1057180Y319681D01*
X1057270Y319695D01*
X1057361Y319703D01*
X1057391Y319715D01*
X1057423Y319720D01*
X1057504Y319763D01*
X1057588Y319799D01*
X1057620Y319825D01*
X1057640Y319836D01*
X1057662Y319859D01*
X1057718Y319904D01*
X1060195Y322381D01*
X1089805Y322381D01*
X1092781Y319405D01*
X1092781Y289795D01*
X1090304Y287318D01*
X1090251Y287244D01*
X1090191Y287175D01*
X1090179Y287145D01*
X1090160Y287119D01*
X1090133Y287032D01*
X1090099Y286947D01*
X1090095Y286906D01*
X1090088Y286884D01*
X1090089Y286851D01*
X1090081Y286780D01*
X1090081Y245107D01*
X1090091Y245042D01*
X1090092Y244976D01*
X1090115Y244896D01*
X1090120Y244864D01*
X1090130Y244847D01*
X1090139Y244815D01*
X1092781Y238437D01*
X1092781Y231363D01*
X1090074Y224828D01*
X1085072Y219826D01*
X1078537Y217119D01*
X1071463Y217119D01*
X1064928Y219826D01*
X1059926Y224828D01*
X1057219Y231363D01*
X1057219Y238437D01*
X1059861Y244815D01*
X1059876Y244879D01*
X1059901Y244940D01*
X1059910Y245023D01*
X1059917Y245055D01*
X1059916Y245074D01*
X1059919Y245107D01*
X1059919Y286780D01*
X1059905Y286870D01*
X1059897Y286961D01*
X1059885Y286991D01*
X1059880Y287023D01*
X1059837Y287104D01*
X1059801Y287188D01*
X1059775Y287220D01*
X1059764Y287240D01*
X1059741Y287263D01*
X1059696Y287318D01*
X1057718Y289296D01*
X1057645Y289349D01*
X1057575Y289409D01*
X1057545Y289421D01*
X1057519Y289440D01*
X1057432Y289467D01*
X1057347Y289501D01*
X1057306Y289505D01*
X1057284Y289512D01*
X1057251Y289511D01*
X1057180Y289519D01*
X991142Y289519D01*
X991122Y289516D01*
X991103Y289518D01*
X991001Y289496D01*
X990899Y289480D01*
X990882Y289470D01*
X990862Y289466D01*
X990773Y289413D01*
X990682Y289364D01*
X990668Y289350D01*
X990651Y289340D01*
X990584Y289261D01*
X990512Y289186D01*
X990504Y289168D01*
X990491Y289153D01*
X990452Y289057D01*
X990409Y288963D01*
X990407Y288943D01*
X990399Y288925D01*
X990381Y288758D01*
X990381Y281200D01*
X988085Y275657D01*
X957304Y244876D01*
X957251Y244802D01*
X957191Y244733D01*
X957179Y244703D01*
X957160Y244677D01*
X957133Y244590D01*
X957099Y244505D01*
X957095Y244464D01*
X957088Y244441D01*
X957089Y244409D01*
X957081Y244338D01*
X957081Y203233D01*
X957095Y203143D01*
X957103Y203052D01*
X957115Y203022D01*
X957120Y202990D01*
X957163Y202910D01*
X957199Y202826D01*
X957225Y202794D01*
X957236Y202773D01*
X957259Y202751D01*
X957304Y202695D01*
X959024Y200975D01*
X962081Y193594D01*
X962081Y185606D01*
X959024Y178225D01*
X953375Y172576D01*
X945994Y169519D01*
X938006Y169519D01*
G37*
%LPD*%
%LPC*%
G36*
X747000Y134919D02*
X747000Y134919D01*
X741457Y137215D01*
X727215Y151457D01*
X724919Y157000D01*
X724919Y220925D01*
X724912Y220971D01*
X724914Y221017D01*
X724892Y221091D01*
X724880Y221168D01*
X724858Y221209D01*
X724845Y221253D01*
X724773Y221369D01*
X724764Y221386D01*
X724761Y221389D01*
X724757Y221395D01*
X673899Y286193D01*
X673892Y286199D01*
X673887Y286207D01*
X673835Y286252D01*
X673818Y286267D01*
X673739Y286345D01*
X673725Y286352D01*
X673718Y286359D01*
X673693Y286370D01*
X673592Y286426D01*
X669728Y288026D01*
X664726Y293028D01*
X662019Y299563D01*
X662019Y306637D01*
X664726Y313172D01*
X669728Y318174D01*
X676263Y320881D01*
X683337Y320881D01*
X689872Y318174D01*
X694874Y313172D01*
X697581Y306637D01*
X697581Y305135D01*
X697588Y305089D01*
X697586Y305043D01*
X697608Y304969D01*
X697620Y304892D01*
X697642Y304851D01*
X697655Y304807D01*
X697727Y304691D01*
X697736Y304674D01*
X697739Y304671D01*
X697743Y304665D01*
X751276Y236459D01*
X751298Y236439D01*
X751336Y236391D01*
X752785Y234943D01*
X753101Y234180D01*
X753111Y234163D01*
X753117Y234143D01*
X753205Y234001D01*
X753715Y233351D01*
X754267Y231379D01*
X754280Y231351D01*
X754297Y231292D01*
X755081Y229400D01*
X755081Y228574D01*
X755084Y228554D01*
X755082Y228534D01*
X755109Y228369D01*
X755331Y227574D01*
X755086Y225540D01*
X755087Y225510D01*
X755081Y225449D01*
X755081Y166562D01*
X755095Y166472D01*
X755103Y166381D01*
X755115Y166351D01*
X755120Y166319D01*
X755163Y166239D01*
X755199Y166155D01*
X755225Y166123D01*
X755236Y166102D01*
X755259Y166080D01*
X755304Y166024D01*
X756024Y165304D01*
X756098Y165251D01*
X756167Y165191D01*
X756197Y165179D01*
X756223Y165160D01*
X756310Y165133D01*
X756395Y165099D01*
X756436Y165095D01*
X756459Y165088D01*
X756491Y165089D01*
X756562Y165081D01*
X873438Y165081D01*
X873528Y165095D01*
X873619Y165103D01*
X873649Y165115D01*
X873681Y165120D01*
X873761Y165163D01*
X873845Y165199D01*
X873877Y165225D01*
X873898Y165236D01*
X873920Y165259D01*
X873976Y165304D01*
X879696Y171024D01*
X879743Y171089D01*
X879754Y171100D01*
X879756Y171106D01*
X879809Y171167D01*
X879821Y171197D01*
X879840Y171223D01*
X879867Y171310D01*
X879901Y171395D01*
X879905Y171436D01*
X879912Y171459D01*
X879911Y171491D01*
X879919Y171562D01*
X879919Y175967D01*
X879905Y176057D01*
X879897Y176148D01*
X879885Y176178D01*
X879880Y176210D01*
X879837Y176290D01*
X879801Y176374D01*
X879775Y176406D01*
X879764Y176427D01*
X879741Y176449D01*
X879696Y176505D01*
X877976Y178225D01*
X874919Y185606D01*
X874919Y193594D01*
X877976Y200975D01*
X883625Y206624D01*
X891006Y209681D01*
X898994Y209681D01*
X906375Y206624D01*
X912024Y200975D01*
X915081Y193594D01*
X915081Y185606D01*
X912024Y178225D01*
X910304Y176505D01*
X910251Y176431D01*
X910191Y176362D01*
X910179Y176332D01*
X910160Y176306D01*
X910133Y176219D01*
X910099Y176134D01*
X910095Y176093D01*
X910088Y176070D01*
X910089Y176038D01*
X910081Y175967D01*
X910081Y162000D01*
X907785Y156457D01*
X888543Y137215D01*
X883000Y134919D01*
X747000Y134919D01*
G37*
%LPD*%
%LPC*%
G36*
X1071463Y337619D02*
X1071463Y337619D01*
X1064928Y340326D01*
X1059926Y345328D01*
X1057219Y351863D01*
X1057219Y358937D01*
X1059926Y365472D01*
X1060546Y366092D01*
X1060599Y366166D01*
X1060659Y366235D01*
X1060671Y366266D01*
X1060690Y366292D01*
X1060717Y366379D01*
X1060751Y366464D01*
X1060755Y366505D01*
X1060762Y366527D01*
X1060761Y366559D01*
X1060769Y366630D01*
X1060769Y551939D01*
X1060755Y552029D01*
X1060747Y552120D01*
X1060735Y552150D01*
X1060730Y552182D01*
X1060687Y552263D01*
X1060651Y552347D01*
X1060625Y552379D01*
X1060614Y552400D01*
X1060591Y552422D01*
X1060546Y552478D01*
X1055393Y557631D01*
X1051719Y566500D01*
X1051719Y576100D01*
X1055393Y584969D01*
X1062181Y591757D01*
X1071050Y595431D01*
X1080650Y595431D01*
X1089519Y591757D01*
X1096307Y584969D01*
X1099981Y576100D01*
X1099981Y566500D01*
X1096307Y557631D01*
X1091154Y552478D01*
X1091101Y552404D01*
X1091041Y552334D01*
X1091029Y552304D01*
X1091010Y552278D01*
X1090983Y552191D01*
X1090949Y552106D01*
X1090945Y552065D01*
X1090938Y552043D01*
X1090939Y552011D01*
X1090931Y551939D01*
X1090931Y363555D01*
X1090941Y363490D01*
X1090942Y363424D01*
X1090965Y363344D01*
X1090970Y363312D01*
X1090980Y363295D01*
X1090989Y363263D01*
X1092781Y358937D01*
X1092781Y351863D01*
X1090074Y345328D01*
X1085072Y340326D01*
X1078537Y337619D01*
X1071463Y337619D01*
G37*
%LPD*%
%LPC*%
G36*
X837163Y172919D02*
X837163Y172919D01*
X830628Y175626D01*
X825626Y180628D01*
X822919Y187163D01*
X822919Y194237D01*
X825626Y200772D01*
X830396Y205542D01*
X830449Y205616D01*
X830509Y205685D01*
X830521Y205716D01*
X830540Y205742D01*
X830567Y205829D01*
X830601Y205914D01*
X830605Y205955D01*
X830612Y205977D01*
X830611Y206009D01*
X830619Y206080D01*
X830619Y241130D01*
X830605Y241220D01*
X830597Y241311D01*
X830585Y241341D01*
X830580Y241373D01*
X830537Y241454D01*
X830501Y241538D01*
X830475Y241570D01*
X830464Y241590D01*
X830441Y241613D01*
X830396Y241668D01*
X826467Y245598D01*
X826467Y257802D01*
X830896Y262232D01*
X830949Y262305D01*
X831009Y262375D01*
X831021Y262405D01*
X831040Y262431D01*
X831067Y262518D01*
X831101Y262603D01*
X831105Y262644D01*
X831112Y262666D01*
X831111Y262699D01*
X831119Y262770D01*
X831119Y290230D01*
X831105Y290320D01*
X831097Y290411D01*
X831085Y290441D01*
X831080Y290473D01*
X831037Y290554D01*
X831001Y290638D01*
X830975Y290670D01*
X830964Y290690D01*
X830941Y290713D01*
X830896Y290768D01*
X826067Y295598D01*
X826067Y307802D01*
X830496Y312232D01*
X830549Y312305D01*
X830609Y312375D01*
X830621Y312405D01*
X830640Y312431D01*
X830667Y312518D01*
X830701Y312603D01*
X830705Y312644D01*
X830712Y312666D01*
X830711Y312699D01*
X830719Y312770D01*
X830719Y351634D01*
X830705Y351724D01*
X830697Y351815D01*
X830685Y351845D01*
X830680Y351877D01*
X830637Y351958D01*
X830601Y352041D01*
X830575Y352074D01*
X830564Y352094D01*
X830541Y352116D01*
X830496Y352172D01*
X827234Y355435D01*
X824797Y361317D01*
X824797Y367683D01*
X827234Y373565D01*
X831735Y378066D01*
X837617Y380503D01*
X843983Y380503D01*
X849865Y378066D01*
X854366Y373565D01*
X856803Y367683D01*
X856803Y361317D01*
X854366Y355435D01*
X851104Y352172D01*
X851051Y352098D01*
X850991Y352029D01*
X850979Y351999D01*
X850960Y351973D01*
X850933Y351886D01*
X850899Y351801D01*
X850895Y351760D01*
X850888Y351738D01*
X850889Y351705D01*
X850881Y351634D01*
X850881Y312770D01*
X850895Y312680D01*
X850903Y312589D01*
X850915Y312559D01*
X850920Y312527D01*
X850963Y312446D01*
X850999Y312362D01*
X851025Y312330D01*
X851036Y312310D01*
X851059Y312287D01*
X851104Y312232D01*
X855533Y307802D01*
X855533Y295598D01*
X851504Y291568D01*
X851460Y291507D01*
X851427Y291473D01*
X851421Y291460D01*
X851391Y291425D01*
X851379Y291395D01*
X851360Y291369D01*
X851333Y291282D01*
X851299Y291197D01*
X851295Y291156D01*
X851288Y291134D01*
X851289Y291101D01*
X851281Y291030D01*
X851281Y262770D01*
X851295Y262680D01*
X851303Y262589D01*
X851315Y262559D01*
X851320Y262527D01*
X851363Y262446D01*
X851399Y262362D01*
X851425Y262330D01*
X851436Y262310D01*
X851459Y262287D01*
X851504Y262232D01*
X855933Y257802D01*
X855933Y245598D01*
X851004Y240668D01*
X850951Y240595D01*
X850891Y240525D01*
X850879Y240495D01*
X850860Y240469D01*
X850833Y240382D01*
X850799Y240297D01*
X850795Y240256D01*
X850788Y240234D01*
X850789Y240201D01*
X850781Y240130D01*
X850781Y206080D01*
X850795Y205990D01*
X850803Y205899D01*
X850815Y205870D01*
X850820Y205838D01*
X850863Y205757D01*
X850899Y205673D01*
X850925Y205641D01*
X850936Y205620D01*
X850959Y205598D01*
X851004Y205542D01*
X855774Y200772D01*
X858481Y194237D01*
X858481Y187163D01*
X855774Y180628D01*
X850772Y175626D01*
X844237Y172919D01*
X837163Y172919D01*
G37*
%LPD*%
%LPC*%
G36*
X432198Y366467D02*
X432198Y366467D01*
X428969Y369696D01*
X428895Y369749D01*
X428825Y369809D01*
X428795Y369821D01*
X428769Y369840D01*
X428682Y369867D01*
X428597Y369901D01*
X428556Y369905D01*
X428534Y369912D01*
X428502Y369911D01*
X428430Y369919D01*
X419395Y369919D01*
X415690Y371454D01*
X344447Y442696D01*
X344373Y442749D01*
X344304Y442809D01*
X344274Y442821D01*
X344248Y442840D01*
X344161Y442867D01*
X344076Y442901D01*
X344035Y442905D01*
X344013Y442912D01*
X343980Y442911D01*
X343909Y442919D01*
X337163Y442919D01*
X330628Y445626D01*
X325626Y450628D01*
X322919Y457163D01*
X322919Y464237D01*
X325626Y470772D01*
X330628Y475774D01*
X337163Y478481D01*
X344237Y478481D01*
X350772Y475774D01*
X355774Y470772D01*
X358481Y464237D01*
X358481Y457491D01*
X358495Y457401D01*
X358503Y457310D01*
X358515Y457280D01*
X358520Y457248D01*
X358563Y457167D01*
X358599Y457084D01*
X358625Y457051D01*
X358636Y457031D01*
X358659Y457009D01*
X358704Y456953D01*
X425353Y390304D01*
X425427Y390251D01*
X425496Y390191D01*
X425526Y390179D01*
X425552Y390160D01*
X425639Y390133D01*
X425724Y390099D01*
X425765Y390095D01*
X425787Y390088D01*
X425820Y390089D01*
X425891Y390081D01*
X426030Y390081D01*
X426120Y390095D01*
X426211Y390103D01*
X426241Y390115D01*
X426273Y390120D01*
X426354Y390163D01*
X426438Y390199D01*
X426470Y390225D01*
X426490Y390236D01*
X426513Y390259D01*
X426569Y390304D01*
X432198Y395933D01*
X444402Y395933D01*
X453033Y387302D01*
X453033Y375098D01*
X444402Y366467D01*
X432198Y366467D01*
G37*
%LPD*%
%LPC*%
G36*
X432198Y468067D02*
X432198Y468067D01*
X423567Y476698D01*
X423567Y488902D01*
X432198Y497533D01*
X444402Y497533D01*
X448932Y493004D01*
X449005Y492951D01*
X449075Y492891D01*
X449105Y492879D01*
X449131Y492860D01*
X449218Y492833D01*
X449303Y492799D01*
X449344Y492795D01*
X449366Y492788D01*
X449399Y492789D01*
X449470Y492781D01*
X471474Y492781D01*
X471539Y492791D01*
X471604Y492792D01*
X471684Y492815D01*
X471717Y492820D01*
X471734Y492830D01*
X471765Y492839D01*
X476053Y494615D01*
X476136Y494666D01*
X476222Y494712D01*
X476240Y494731D01*
X476262Y494744D01*
X476324Y494819D01*
X476391Y494890D01*
X476402Y494914D01*
X476419Y494934D01*
X476454Y495025D01*
X476495Y495113D01*
X476498Y495139D01*
X476507Y495163D01*
X476511Y495261D01*
X476522Y495357D01*
X476516Y495383D01*
X476517Y495409D01*
X476490Y495503D01*
X476470Y495598D01*
X476456Y495620D01*
X476449Y495645D01*
X476393Y495725D01*
X476343Y495809D01*
X476324Y495826D01*
X476309Y495847D01*
X476231Y495906D01*
X476157Y495969D01*
X476132Y495979D01*
X476111Y495994D01*
X476019Y496024D01*
X475928Y496061D01*
X475896Y496064D01*
X475877Y496070D01*
X475844Y496070D01*
X475762Y496079D01*
X469655Y496079D01*
X466679Y499055D01*
X466679Y517145D01*
X469655Y520121D01*
X487745Y520121D01*
X490721Y517145D01*
X490721Y499055D01*
X487745Y496079D01*
X481638Y496079D01*
X481542Y496064D01*
X481445Y496054D01*
X481421Y496044D01*
X481396Y496040D01*
X481310Y495994D01*
X481221Y495954D01*
X481201Y495937D01*
X481178Y495924D01*
X481111Y495854D01*
X481039Y495788D01*
X481027Y495765D01*
X481009Y495746D01*
X480968Y495658D01*
X480921Y495572D01*
X480916Y495547D01*
X480905Y495523D01*
X480894Y495426D01*
X480877Y495330D01*
X480881Y495304D01*
X480878Y495279D01*
X480899Y495183D01*
X480913Y495087D01*
X480925Y495064D01*
X480930Y495038D01*
X480980Y494955D01*
X481024Y494868D01*
X481043Y494849D01*
X481057Y494827D01*
X481130Y494764D01*
X481200Y494696D01*
X481229Y494680D01*
X481243Y494667D01*
X481274Y494655D01*
X481347Y494615D01*
X485509Y492891D01*
X488891Y489509D01*
X490721Y485091D01*
X490721Y480309D01*
X488891Y475891D01*
X485509Y472509D01*
X481091Y470679D01*
X476309Y470679D01*
X471765Y472561D01*
X471701Y472576D01*
X471641Y472601D01*
X471558Y472610D01*
X471526Y472617D01*
X471506Y472616D01*
X471474Y472619D01*
X449270Y472619D01*
X449180Y472605D01*
X449089Y472597D01*
X449059Y472585D01*
X449027Y472580D01*
X448946Y472537D01*
X448862Y472501D01*
X448830Y472475D01*
X448810Y472464D01*
X448787Y472441D01*
X448732Y472396D01*
X444402Y468067D01*
X432198Y468067D01*
G37*
%LPD*%
%LPC*%
G36*
X699490Y679839D02*
X699490Y679839D01*
X692080Y682909D01*
X686409Y688580D01*
X683339Y695990D01*
X683339Y704010D01*
X686409Y711420D01*
X692080Y717091D01*
X699490Y720161D01*
X707510Y720161D01*
X714920Y717091D01*
X720591Y711420D01*
X723661Y704010D01*
X723661Y695990D01*
X720591Y688580D01*
X714920Y682909D01*
X707510Y679839D01*
X699490Y679839D01*
G37*
%LPD*%
%LPC*%
G36*
X476309Y419879D02*
X476309Y419879D01*
X471891Y421709D01*
X468509Y425091D01*
X466679Y429509D01*
X466679Y434291D01*
X468509Y438709D01*
X471891Y442091D01*
X476309Y443921D01*
X481091Y443921D01*
X485509Y442091D01*
X488891Y438709D01*
X490721Y434291D01*
X490721Y429509D01*
X488891Y425091D01*
X485509Y421709D01*
X481091Y419879D01*
X476309Y419879D01*
G37*
%LPD*%
%LPC*%
G36*
X412423Y191523D02*
X412423Y191523D01*
X412423Y211576D01*
X415121Y211221D01*
X417855Y210489D01*
X420470Y209406D01*
X422921Y207991D01*
X425166Y206268D01*
X427168Y204266D01*
X428891Y202021D01*
X430306Y199570D01*
X431389Y196955D01*
X432121Y194221D01*
X432476Y191523D01*
X412423Y191523D01*
G37*
%LPD*%
%LPC*%
G36*
X412423Y188477D02*
X412423Y188477D01*
X432476Y188477D01*
X432121Y185779D01*
X431389Y183045D01*
X430306Y180430D01*
X428891Y177979D01*
X427168Y175734D01*
X425166Y173732D01*
X422921Y172009D01*
X420470Y170594D01*
X417855Y169511D01*
X415121Y168779D01*
X412423Y168424D01*
X412423Y188477D01*
G37*
%LPD*%
%LPC*%
G36*
X389324Y191523D02*
X389324Y191523D01*
X389679Y194221D01*
X390411Y196955D01*
X391494Y199570D01*
X392909Y202021D01*
X394632Y204266D01*
X396634Y206268D01*
X398879Y207991D01*
X401330Y209406D01*
X403945Y210489D01*
X406679Y211221D01*
X409377Y211576D01*
X409377Y191523D01*
X389324Y191523D01*
G37*
%LPD*%
%LPC*%
G36*
X406679Y168779D02*
X406679Y168779D01*
X403945Y169511D01*
X401330Y170594D01*
X398879Y172009D01*
X396634Y173732D01*
X394632Y175734D01*
X392909Y177979D01*
X391494Y180430D01*
X390411Y183045D01*
X389679Y185779D01*
X389324Y188477D01*
X409377Y188477D01*
X409377Y168424D01*
X406679Y168779D01*
G37*
%LPD*%
%LPC*%
G36*
X692423Y371863D02*
X692423Y371863D01*
X692423Y387832D01*
X694329Y387581D01*
X696550Y386985D01*
X698675Y386106D01*
X700666Y384956D01*
X702490Y383556D01*
X704116Y381930D01*
X705516Y380106D01*
X706666Y378115D01*
X707545Y375990D01*
X708141Y373769D01*
X708392Y371863D01*
X692423Y371863D01*
G37*
%LPD*%
%LPC*%
G36*
X673408Y371863D02*
X673408Y371863D01*
X673659Y373769D01*
X674255Y375990D01*
X675134Y378115D01*
X676284Y380106D01*
X677684Y381930D01*
X679310Y383556D01*
X681134Y384956D01*
X683125Y386106D01*
X685250Y386985D01*
X687471Y387581D01*
X689377Y387832D01*
X689377Y371863D01*
X673408Y371863D01*
G37*
%LPD*%
%LPC*%
G36*
X692423Y368817D02*
X692423Y368817D01*
X708392Y368817D01*
X708141Y366911D01*
X707545Y364690D01*
X706666Y362565D01*
X705516Y360574D01*
X704116Y358750D01*
X702490Y357124D01*
X700666Y355724D01*
X698675Y354574D01*
X696550Y353695D01*
X694329Y353099D01*
X692423Y352848D01*
X692423Y368817D01*
G37*
%LPD*%
%LPC*%
G36*
X687471Y353099D02*
X687471Y353099D01*
X685250Y353695D01*
X683125Y354574D01*
X681134Y355724D01*
X679310Y357124D01*
X677684Y358750D01*
X676284Y360574D01*
X675134Y362565D01*
X674255Y364690D01*
X673659Y366911D01*
X673408Y368817D01*
X689377Y368817D01*
X689377Y352848D01*
X687471Y353099D01*
G37*
%LPD*%
%LPC*%
G36*
X342223Y513023D02*
X342223Y513023D01*
X342223Y526741D01*
X353734Y526741D01*
X354381Y526568D01*
X354960Y526233D01*
X355433Y525760D01*
X355768Y525181D01*
X355941Y524534D01*
X355941Y513023D01*
X342223Y513023D01*
G37*
%LPD*%
%LPC*%
G36*
X1076523Y185623D02*
X1076523Y185623D01*
X1076523Y199341D01*
X1088034Y199341D01*
X1088681Y199168D01*
X1089260Y198833D01*
X1089733Y198360D01*
X1090068Y197781D01*
X1090241Y197134D01*
X1090241Y185623D01*
X1076523Y185623D01*
G37*
%LPD*%
%LPC*%
G36*
X376523Y304623D02*
X376523Y304623D01*
X376523Y318341D01*
X388034Y318341D01*
X388681Y318168D01*
X389260Y317833D01*
X389733Y317360D01*
X390068Y316781D01*
X390241Y316134D01*
X390241Y304623D01*
X376523Y304623D01*
G37*
%LPD*%
%LPC*%
G36*
X791423Y192223D02*
X791423Y192223D01*
X791423Y205941D01*
X802934Y205941D01*
X803581Y205768D01*
X804160Y205433D01*
X804633Y204960D01*
X804968Y204381D01*
X805141Y203734D01*
X805141Y192223D01*
X791423Y192223D01*
G37*
%LPD*%
%LPC*%
G36*
X1076523Y182577D02*
X1076523Y182577D01*
X1090241Y182577D01*
X1090241Y171066D01*
X1090068Y170419D01*
X1089733Y169840D01*
X1089260Y169367D01*
X1088681Y169032D01*
X1088034Y168859D01*
X1076523Y168859D01*
X1076523Y182577D01*
G37*
%LPD*%
%LPC*%
G36*
X1059759Y185623D02*
X1059759Y185623D01*
X1059759Y197134D01*
X1059932Y197781D01*
X1060267Y198360D01*
X1060740Y198833D01*
X1061319Y199168D01*
X1061966Y199341D01*
X1073477Y199341D01*
X1073477Y185623D01*
X1059759Y185623D01*
G37*
%LPD*%
%LPC*%
G36*
X791423Y175459D02*
X791423Y175459D01*
X791423Y189177D01*
X805141Y189177D01*
X805141Y177666D01*
X804968Y177019D01*
X804633Y176440D01*
X804160Y175967D01*
X803581Y175632D01*
X802934Y175459D01*
X791423Y175459D01*
G37*
%LPD*%
%LPC*%
G36*
X325459Y513023D02*
X325459Y513023D01*
X325459Y524534D01*
X325632Y525181D01*
X325967Y525760D01*
X326440Y526233D01*
X327019Y526568D01*
X327666Y526741D01*
X339177Y526741D01*
X339177Y513023D01*
X325459Y513023D01*
G37*
%LPD*%
%LPC*%
G36*
X376523Y287859D02*
X376523Y287859D01*
X376523Y301577D01*
X390241Y301577D01*
X390241Y290066D01*
X390068Y289419D01*
X389733Y288840D01*
X389260Y288367D01*
X388681Y288032D01*
X388034Y287859D01*
X376523Y287859D01*
G37*
%LPD*%
%LPC*%
G36*
X359759Y304623D02*
X359759Y304623D01*
X359759Y316134D01*
X359932Y316781D01*
X360267Y317360D01*
X360740Y317833D01*
X361319Y318168D01*
X361966Y318341D01*
X373477Y318341D01*
X373477Y304623D01*
X359759Y304623D01*
G37*
%LPD*%
%LPC*%
G36*
X774659Y192223D02*
X774659Y192223D01*
X774659Y203734D01*
X774832Y204381D01*
X775167Y204960D01*
X775640Y205433D01*
X776219Y205768D01*
X776866Y205941D01*
X788377Y205941D01*
X788377Y192223D01*
X774659Y192223D01*
G37*
%LPD*%
%LPC*%
G36*
X342223Y496259D02*
X342223Y496259D01*
X342223Y509977D01*
X355941Y509977D01*
X355941Y498466D01*
X355768Y497819D01*
X355433Y497240D01*
X354960Y496767D01*
X354381Y496432D01*
X353734Y496259D01*
X342223Y496259D01*
G37*
%LPD*%
%LPC*%
G36*
X776866Y175459D02*
X776866Y175459D01*
X776219Y175632D01*
X775640Y175967D01*
X775167Y176440D01*
X774832Y177019D01*
X774659Y177666D01*
X774659Y189177D01*
X788377Y189177D01*
X788377Y175459D01*
X776866Y175459D01*
G37*
%LPD*%
%LPC*%
G36*
X361966Y287859D02*
X361966Y287859D01*
X361319Y288032D01*
X360740Y288367D01*
X360267Y288840D01*
X359932Y289419D01*
X359759Y290066D01*
X359759Y301577D01*
X373477Y301577D01*
X373477Y287859D01*
X361966Y287859D01*
G37*
%LPD*%
%LPC*%
G36*
X327666Y496259D02*
X327666Y496259D01*
X327019Y496432D01*
X326440Y496767D01*
X325967Y497240D01*
X325632Y497819D01*
X325459Y498466D01*
X325459Y509977D01*
X339177Y509977D01*
X339177Y496259D01*
X327666Y496259D01*
G37*
%LPD*%
%LPC*%
G36*
X1061966Y168859D02*
X1061966Y168859D01*
X1061319Y169032D01*
X1060740Y169367D01*
X1060267Y169840D01*
X1059932Y170419D01*
X1059759Y171066D01*
X1059759Y182577D01*
X1073477Y182577D01*
X1073477Y168859D01*
X1061966Y168859D01*
G37*
%LPD*%
%LPC*%
G36*
X342223Y686123D02*
X342223Y686123D01*
X342223Y699789D01*
X344269Y699465D01*
X346550Y698724D01*
X348688Y697635D01*
X350629Y696225D01*
X352325Y694529D01*
X353735Y692588D01*
X354824Y690450D01*
X355565Y688169D01*
X355889Y686123D01*
X342223Y686123D01*
G37*
%LPD*%
%LPC*%
G36*
X325511Y686123D02*
X325511Y686123D01*
X325835Y688169D01*
X326576Y690450D01*
X327665Y692588D01*
X329075Y694529D01*
X330771Y696225D01*
X332712Y697635D01*
X334850Y698724D01*
X337131Y699465D01*
X339177Y699789D01*
X339177Y686123D01*
X325511Y686123D01*
G37*
%LPD*%
%LPC*%
G36*
X342223Y683077D02*
X342223Y683077D01*
X355889Y683077D01*
X355565Y681031D01*
X354824Y678750D01*
X353735Y676612D01*
X352325Y674671D01*
X350629Y672975D01*
X348688Y671565D01*
X346550Y670476D01*
X344269Y669735D01*
X342223Y669411D01*
X342223Y683077D01*
G37*
%LPD*%
%LPC*%
G36*
X337131Y669735D02*
X337131Y669735D01*
X334850Y670476D01*
X332712Y671565D01*
X330771Y672975D01*
X329075Y674671D01*
X327665Y676612D01*
X326576Y678750D01*
X325835Y681031D01*
X325511Y683077D01*
X339177Y683077D01*
X339177Y669411D01*
X337131Y669735D01*
G37*
%LPD*%
%LPC*%
G36*
X740723Y366023D02*
X740723Y366023D01*
X740723Y377889D01*
X742352Y377631D01*
X744368Y376976D01*
X746256Y376014D01*
X747970Y374769D01*
X749469Y373270D01*
X750714Y371556D01*
X751676Y369668D01*
X752331Y367652D01*
X752589Y366023D01*
X740723Y366023D01*
G37*
%LPD*%
%LPC*%
G36*
X740723Y362977D02*
X740723Y362977D01*
X752589Y362977D01*
X752331Y361348D01*
X751676Y359332D01*
X750714Y357444D01*
X749469Y355730D01*
X747970Y354231D01*
X746256Y352986D01*
X744368Y352024D01*
X742352Y351369D01*
X740723Y351111D01*
X740723Y362977D01*
G37*
%LPD*%
%LPC*%
G36*
X725811Y366023D02*
X725811Y366023D01*
X726069Y367652D01*
X726724Y369668D01*
X727686Y371556D01*
X728931Y373270D01*
X730430Y374769D01*
X732144Y376014D01*
X734032Y376976D01*
X736048Y377631D01*
X737677Y377889D01*
X737677Y366023D01*
X725811Y366023D01*
G37*
%LPD*%
%LPC*%
G36*
X736048Y351369D02*
X736048Y351369D01*
X734032Y352024D01*
X732144Y352986D01*
X730430Y354231D01*
X728931Y355730D01*
X727686Y357444D01*
X726724Y359332D01*
X726069Y361348D01*
X725811Y362977D01*
X737677Y362977D01*
X737677Y351111D01*
X736048Y351369D01*
G37*
%LPD*%
%LPC*%
G36*
X740723Y303223D02*
X740723Y303223D01*
X740723Y313893D01*
X744250Y313893D01*
X751393Y306750D01*
X751393Y303223D01*
X740723Y303223D01*
G37*
%LPD*%
%LPC*%
G36*
X740723Y289507D02*
X740723Y289507D01*
X740723Y300177D01*
X751393Y300177D01*
X751393Y296650D01*
X744250Y289507D01*
X740723Y289507D01*
G37*
%LPD*%
%LPC*%
G36*
X727007Y303223D02*
X727007Y303223D01*
X727007Y306750D01*
X734150Y313893D01*
X737677Y313893D01*
X737677Y303223D01*
X727007Y303223D01*
G37*
%LPD*%
%LPC*%
G36*
X734150Y289507D02*
X734150Y289507D01*
X727007Y296650D01*
X727007Y300177D01*
X737677Y300177D01*
X737677Y289507D01*
X734150Y289507D01*
G37*
%LPD*%
%LPC*%
G36*
X446223Y686123D02*
X446223Y686123D01*
X446223Y696666D01*
X449698Y696666D01*
X456766Y689598D01*
X456766Y686123D01*
X446223Y686123D01*
G37*
%LPD*%
%LPC*%
G36*
X976823Y356923D02*
X976823Y356923D01*
X976823Y367466D01*
X980298Y367466D01*
X987366Y360398D01*
X987366Y356923D01*
X976823Y356923D01*
G37*
%LPD*%
%LPC*%
G36*
X432634Y686123D02*
X432634Y686123D01*
X432634Y689598D01*
X439702Y696666D01*
X443177Y696666D01*
X443177Y686123D01*
X432634Y686123D01*
G37*
%LPD*%
%LPC*%
G36*
X963234Y356923D02*
X963234Y356923D01*
X963234Y360398D01*
X970302Y367466D01*
X973777Y367466D01*
X973777Y356923D01*
X963234Y356923D01*
G37*
%LPD*%
%LPC*%
G36*
X976823Y343334D02*
X976823Y343334D01*
X976823Y353877D01*
X987366Y353877D01*
X987366Y350402D01*
X980298Y343334D01*
X976823Y343334D01*
G37*
%LPD*%
%LPC*%
G36*
X446223Y672534D02*
X446223Y672534D01*
X446223Y683077D01*
X456766Y683077D01*
X456766Y679602D01*
X449698Y672534D01*
X446223Y672534D01*
G37*
%LPD*%
%LPC*%
G36*
X439702Y672534D02*
X439702Y672534D01*
X432634Y679602D01*
X432634Y683077D01*
X443177Y683077D01*
X443177Y672534D01*
X439702Y672534D01*
G37*
%LPD*%
%LPC*%
G36*
X970302Y343334D02*
X970302Y343334D01*
X963234Y350402D01*
X963234Y353877D01*
X973777Y353877D01*
X973777Y343334D01*
X970302Y343334D01*
G37*
%LPD*%
%LPC*%
G36*
X513523Y686123D02*
X513523Y686123D01*
X513523Y695142D01*
X516367Y695142D01*
X522542Y688967D01*
X522542Y686123D01*
X513523Y686123D01*
G37*
%LPD*%
%LPC*%
G36*
X899523Y356923D02*
X899523Y356923D01*
X899523Y365942D01*
X902367Y365942D01*
X908542Y359767D01*
X908542Y356923D01*
X899523Y356923D01*
G37*
%LPD*%
%LPC*%
G36*
X887458Y356923D02*
X887458Y356923D01*
X887458Y359767D01*
X893633Y365942D01*
X896477Y365942D01*
X896477Y356923D01*
X887458Y356923D01*
G37*
%LPD*%
%LPC*%
G36*
X501458Y686123D02*
X501458Y686123D01*
X501458Y688967D01*
X507633Y695142D01*
X510477Y695142D01*
X510477Y686123D01*
X501458Y686123D01*
G37*
%LPD*%
%LPC*%
G36*
X513523Y674058D02*
X513523Y674058D01*
X513523Y683077D01*
X522542Y683077D01*
X522542Y680233D01*
X516367Y674058D01*
X513523Y674058D01*
G37*
%LPD*%
%LPC*%
G36*
X899523Y344858D02*
X899523Y344858D01*
X899523Y353877D01*
X908542Y353877D01*
X908542Y351033D01*
X902367Y344858D01*
X899523Y344858D01*
G37*
%LPD*%
%LPC*%
G36*
X893633Y344858D02*
X893633Y344858D01*
X887458Y351033D01*
X887458Y353877D01*
X896477Y353877D01*
X896477Y344858D01*
X893633Y344858D01*
G37*
%LPD*%
%LPC*%
G36*
X507633Y674058D02*
X507633Y674058D01*
X501458Y680233D01*
X501458Y683077D01*
X510477Y683077D01*
X510477Y674058D01*
X507633Y674058D01*
G37*
%LPD*%
%LPC*%
G36*
X480223Y458823D02*
X480223Y458823D01*
X480223Y466663D01*
X481465Y466416D01*
X483191Y465702D01*
X484744Y464664D01*
X486064Y463344D01*
X487102Y461791D01*
X487816Y460065D01*
X488063Y458823D01*
X480223Y458823D01*
G37*
%LPD*%
%LPC*%
G36*
X480223Y455777D02*
X480223Y455777D01*
X488063Y455777D01*
X487816Y454535D01*
X487102Y452809D01*
X486064Y451256D01*
X484744Y449936D01*
X483191Y448898D01*
X481465Y448184D01*
X480223Y447937D01*
X480223Y455777D01*
G37*
%LPD*%
%LPC*%
G36*
X469337Y458823D02*
X469337Y458823D01*
X469584Y460065D01*
X470298Y461791D01*
X471336Y463344D01*
X472656Y464664D01*
X474209Y465702D01*
X475935Y466416D01*
X477177Y466663D01*
X477177Y458823D01*
X469337Y458823D01*
G37*
%LPD*%
%LPC*%
G36*
X475935Y448184D02*
X475935Y448184D01*
X474209Y448898D01*
X472656Y449936D01*
X471336Y451256D01*
X470298Y452809D01*
X469584Y454535D01*
X469337Y455777D01*
X477177Y455777D01*
X477177Y447937D01*
X475935Y448184D01*
G37*
%LPD*%
%LPC*%
G36*
X739199Y364499D02*
X739199Y364499D01*
X739199Y364501D01*
X739201Y364501D01*
X739201Y364499D01*
X739199Y364499D01*
G37*
%LPD*%
%LPC*%
G36*
X975299Y355399D02*
X975299Y355399D01*
X975299Y355401D01*
X975301Y355401D01*
X975301Y355399D01*
X975299Y355399D01*
G37*
%LPD*%
%LPC*%
G36*
X897999Y355399D02*
X897999Y355399D01*
X897999Y355401D01*
X898001Y355401D01*
X898001Y355399D01*
X897999Y355399D01*
G37*
%LPD*%
%LPC*%
G36*
X374999Y303099D02*
X374999Y303099D01*
X374999Y303101D01*
X375001Y303101D01*
X375001Y303099D01*
X374999Y303099D01*
G37*
%LPD*%
%LPC*%
G36*
X478699Y457299D02*
X478699Y457299D01*
X478699Y457301D01*
X478701Y457301D01*
X478701Y457299D01*
X478699Y457299D01*
G37*
%LPD*%
%LPC*%
G36*
X690899Y370339D02*
X690899Y370339D01*
X690899Y370341D01*
X690901Y370341D01*
X690901Y370339D01*
X690899Y370339D01*
G37*
%LPD*%
%LPC*%
G36*
X340699Y511499D02*
X340699Y511499D01*
X340699Y511501D01*
X340701Y511501D01*
X340701Y511499D01*
X340699Y511499D01*
G37*
%LPD*%
%LPC*%
G36*
X444699Y684599D02*
X444699Y684599D01*
X444699Y684601D01*
X444701Y684601D01*
X444701Y684599D01*
X444699Y684599D01*
G37*
%LPD*%
%LPC*%
G36*
X789899Y190699D02*
X789899Y190699D01*
X789899Y190701D01*
X789901Y190701D01*
X789901Y190699D01*
X789899Y190699D01*
G37*
%LPD*%
%LPC*%
G36*
X410899Y189999D02*
X410899Y189999D01*
X410899Y190001D01*
X410901Y190001D01*
X410901Y189999D01*
X410899Y189999D01*
G37*
%LPD*%
%LPC*%
G36*
X340699Y684599D02*
X340699Y684599D01*
X340699Y684601D01*
X340701Y684601D01*
X340701Y684599D01*
X340699Y684599D01*
G37*
%LPD*%
%LPC*%
G36*
X1074999Y184099D02*
X1074999Y184099D01*
X1074999Y184101D01*
X1075001Y184101D01*
X1075001Y184099D01*
X1074999Y184099D01*
G37*
%LPD*%
%LPC*%
G36*
X511999Y684599D02*
X511999Y684599D01*
X511999Y684601D01*
X512001Y684601D01*
X512001Y684599D01*
X511999Y684599D01*
G37*
%LPD*%
%LPC*%
G36*
X739199Y301699D02*
X739199Y301699D01*
X739199Y301701D01*
X739201Y301701D01*
X739201Y301699D01*
X739199Y301699D01*
G37*
%LPD*%
D10*
X898000Y304600D03*
X898000Y355400D03*
D11*
X512000Y735400D03*
X512000Y684600D03*
X512000Y623100D03*
X512000Y572300D03*
D12*
X444700Y735400D03*
D13*
X444700Y684600D03*
D12*
X444700Y622900D03*
D13*
X444700Y572100D03*
D12*
X975300Y304600D03*
D14*
X975300Y355400D03*
D15*
X690900Y571000D03*
D16*
X690900Y370340D03*
D17*
X840800Y364500D03*
X739200Y364500D03*
D18*
X340700Y622900D03*
D19*
X340700Y572100D03*
D18*
X1075000Y304600D03*
D19*
X1075000Y355400D03*
D20*
X783750Y571300D03*
X1075850Y571300D03*
D18*
X340700Y511500D03*
D19*
X340700Y460700D03*
D21*
X438300Y381200D03*
X438300Y482800D03*
X590000Y483200D03*
X590000Y584800D03*
D22*
X690800Y618300D03*
X589200Y618300D03*
D23*
X739200Y301700D03*
X840800Y301700D03*
X841200Y251700D03*
X942800Y251700D03*
D18*
X375000Y303100D03*
D19*
X679800Y303100D03*
D20*
X410900Y190000D03*
X679124Y190000D03*
D16*
X989000Y189600D03*
X942000Y189600D03*
X895000Y189600D03*
D24*
X478700Y508100D03*
D25*
X478700Y482700D03*
X478700Y457300D03*
X478700Y431900D03*
X554900Y431900D03*
X554900Y457300D03*
X554900Y482700D03*
X554900Y508100D03*
D26*
X613000Y650000D03*
X640000Y650000D03*
X667000Y650000D03*
D18*
X340700Y735400D03*
D19*
X340700Y684600D03*
D18*
X789900Y190700D03*
D19*
X840700Y190700D03*
D18*
X1075000Y184100D03*
D19*
X1075000Y234900D03*
D27*
X840700Y251200D02*
X840700Y190700D01*
X840700Y251200D02*
X841200Y251700D01*
X841200Y301300D01*
X840800Y301700D01*
X840800Y364500D01*
D28*
X895000Y189600D02*
X895000Y165000D01*
X880000Y150000D01*
X750000Y150000D01*
X740000Y160000D01*
X740000Y226400D01*
X679800Y303100D01*
X990000Y188600D02*
X990000Y150000D01*
X990000Y188600D02*
X989000Y189600D01*
X990000Y150000D02*
X950000Y110000D01*
X679124Y130876D02*
X679124Y190000D01*
X700000Y110000D02*
X950000Y110000D01*
X700000Y110000D02*
X679124Y130876D01*
X975300Y304600D02*
X1075000Y304600D01*
X975300Y304600D02*
X898000Y304600D01*
X942000Y250900D02*
X942000Y189600D01*
X942000Y250900D02*
X942800Y251700D01*
X975300Y284200D01*
X975300Y304600D01*
X1075000Y304600D02*
X1075000Y234900D01*
X690800Y626200D02*
X667000Y650000D01*
X690800Y626200D02*
X690800Y618300D01*
X690800Y571100D01*
X690900Y571000D01*
X783450Y571000D01*
X783750Y571300D01*
X589500Y482700D02*
X554900Y482700D01*
X589500Y482700D02*
X590000Y483200D01*
X554900Y482700D02*
X554900Y457300D01*
X444700Y622900D02*
X340700Y622900D01*
X444700Y622900D02*
X511800Y622900D01*
X512000Y623100D01*
X554900Y580200D01*
X554900Y508100D01*
X590000Y584800D02*
X589200Y585600D01*
X589200Y618300D01*
X589200Y626200D01*
X613000Y650000D01*
X1075850Y571300D02*
X1075850Y356250D01*
X1075000Y355400D01*
D27*
X438400Y482700D02*
X438300Y482800D01*
X438400Y482700D02*
X478700Y482700D01*
D28*
X444700Y735400D02*
X340700Y735400D01*
X444700Y735400D02*
X512000Y735400D01*
X604600Y735400D01*
X640000Y700000D01*
X640000Y650000D01*
X512000Y572300D02*
X512000Y448000D01*
X528100Y431900D02*
X554900Y431900D01*
X528100Y431900D02*
X512000Y448000D01*
X444700Y572100D02*
X340700Y572100D01*
X444700Y572100D02*
X511800Y572100D01*
X512000Y572300D01*
D27*
X340700Y460700D02*
X421400Y380000D01*
X440000Y380000D01*
M02*
