G04 EAGLE Gerber RS-274X export*
G75*
%MOMM*%
%FSLAX34Y34*%
%LPD*%
%IN*%
%IPPOS*%
%AMOC8*
5,1,8,0,0,1.08239X$1,22.5*%
G01*
%ADD10C,0.254000*%


D10*
X225000Y35000D02*
X1220000Y35000D01*
X1220000Y800000D01*
X225000Y800000D01*
X225000Y35000D01*
X586500Y699563D02*
X586424Y698694D01*
X586272Y697834D01*
X586046Y696990D01*
X585748Y696170D01*
X585379Y695378D01*
X584942Y694622D01*
X584441Y693907D01*
X583880Y693238D01*
X583262Y692620D01*
X582593Y692059D01*
X581878Y691558D01*
X581122Y691121D01*
X580330Y690752D01*
X579510Y690454D01*
X578666Y690228D01*
X577807Y690076D01*
X576937Y690000D01*
X576063Y690000D01*
X575194Y690076D01*
X574334Y690228D01*
X573490Y690454D01*
X572670Y690752D01*
X571878Y691121D01*
X571122Y691558D01*
X570407Y692059D01*
X569738Y692620D01*
X569120Y693238D01*
X568559Y693907D01*
X568058Y694622D01*
X567621Y695378D01*
X567252Y696170D01*
X566954Y696990D01*
X566728Y697834D01*
X566576Y698694D01*
X566500Y699563D01*
X566500Y700437D01*
X566576Y701307D01*
X566728Y702166D01*
X566954Y703010D01*
X567252Y703830D01*
X567621Y704622D01*
X568058Y705378D01*
X568559Y706093D01*
X569120Y706762D01*
X569738Y707380D01*
X570407Y707941D01*
X571122Y708442D01*
X571878Y708879D01*
X572670Y709248D01*
X573490Y709546D01*
X574334Y709772D01*
X575194Y709924D01*
X576063Y710000D01*
X576937Y710000D01*
X577807Y709924D01*
X578666Y709772D01*
X579510Y709546D01*
X580330Y709248D01*
X581122Y708879D01*
X581878Y708442D01*
X582593Y707941D01*
X583262Y707380D01*
X583880Y706762D01*
X584441Y706093D01*
X584942Y705378D01*
X585379Y704622D01*
X585748Y703830D01*
X586046Y703010D01*
X586272Y702166D01*
X586424Y701307D01*
X586500Y700437D01*
X586500Y699563D01*
X713500Y699563D02*
X713424Y698694D01*
X713272Y697834D01*
X713046Y696990D01*
X712748Y696170D01*
X712379Y695378D01*
X711942Y694622D01*
X711441Y693907D01*
X710880Y693238D01*
X710262Y692620D01*
X709593Y692059D01*
X708878Y691558D01*
X708122Y691121D01*
X707330Y690752D01*
X706510Y690454D01*
X705666Y690228D01*
X704807Y690076D01*
X703937Y690000D01*
X703063Y690000D01*
X702194Y690076D01*
X701334Y690228D01*
X700490Y690454D01*
X699670Y690752D01*
X698878Y691121D01*
X698122Y691558D01*
X697407Y692059D01*
X696738Y692620D01*
X696120Y693238D01*
X695559Y693907D01*
X695058Y694622D01*
X694621Y695378D01*
X694252Y696170D01*
X693954Y696990D01*
X693728Y697834D01*
X693576Y698694D01*
X693500Y699563D01*
X693500Y700437D01*
X693576Y701307D01*
X693728Y702166D01*
X693954Y703010D01*
X694252Y703830D01*
X694621Y704622D01*
X695058Y705378D01*
X695559Y706093D01*
X696120Y706762D01*
X696738Y707380D01*
X697407Y707941D01*
X698122Y708442D01*
X698878Y708879D01*
X699670Y709248D01*
X700490Y709546D01*
X701334Y709772D01*
X702194Y709924D01*
X703063Y710000D01*
X703937Y710000D01*
X704807Y709924D01*
X705666Y709772D01*
X706510Y709546D01*
X707330Y709248D01*
X708122Y708879D01*
X708878Y708442D01*
X709593Y707941D01*
X710262Y707380D01*
X710880Y706762D01*
X711441Y706093D01*
X711942Y705378D01*
X712379Y704622D01*
X712748Y703830D01*
X713046Y703010D01*
X713272Y702166D01*
X713424Y701307D01*
X713500Y700437D01*
X713500Y699563D01*
M02*
