G04 EAGLE Gerber RS-274X export*
G75*
%MOMM*%
%FSLAX34Y34*%
%LPD*%
%INSoldermask Bottom*%
%IPPOS*%
%AMOC8*
5,1,8,0,0,1.08239X$1,22.5*%
G01*
%ADD10P,1.951982X8X112.500000*%
%ADD11P,1.951982X8X292.500000*%
%ADD12C,2.108200*%
%ADD13P,2.281895X8X292.500000*%
%ADD14P,2.281895X8X112.500000*%
%ADD15R,3.203200X3.203200*%
%ADD16C,3.203200*%
%ADD17C,2.387600*%
%ADD18R,2.743200X2.743200*%
%ADD19C,2.743200*%
%ADD20C,4.013200*%
%ADD21P,2.309387X8X112.500000*%
%ADD22P,2.309387X8X202.500000*%
%ADD23P,2.309387X8X22.500000*%
%ADD24R,1.591200X1.591200*%
%ADD25C,1.591200*%
%ADD26C,2.203200*%


D10*
X898000Y304600D03*
X898000Y355400D03*
D11*
X512000Y735400D03*
X512000Y684600D03*
X512000Y623100D03*
X512000Y572300D03*
D12*
X444700Y735400D03*
D13*
X444700Y684600D03*
D12*
X444700Y622900D03*
D13*
X444700Y572100D03*
D12*
X975300Y304600D03*
D14*
X975300Y355400D03*
D15*
X690900Y571000D03*
D16*
X690900Y370340D03*
D17*
X840800Y364500D03*
X739200Y364500D03*
D18*
X340700Y622900D03*
D19*
X340700Y572100D03*
D18*
X1075000Y304600D03*
D19*
X1075000Y355400D03*
D20*
X783750Y571300D03*
X1075850Y571300D03*
D18*
X340700Y511500D03*
D19*
X340700Y460700D03*
D21*
X438300Y381200D03*
X438300Y482800D03*
X590000Y483200D03*
X590000Y584800D03*
D22*
X690800Y618300D03*
X589200Y618300D03*
D23*
X739200Y301700D03*
X840800Y301700D03*
X841200Y251700D03*
X942800Y251700D03*
D18*
X375000Y303100D03*
D19*
X679800Y303100D03*
D20*
X410900Y190000D03*
X679124Y190000D03*
D16*
X989000Y189600D03*
X942000Y189600D03*
X895000Y189600D03*
D24*
X478700Y508100D03*
D25*
X478700Y482700D03*
X478700Y457300D03*
X478700Y431900D03*
X554900Y431900D03*
X554900Y457300D03*
X554900Y482700D03*
X554900Y508100D03*
D26*
X613000Y650000D03*
X640000Y650000D03*
X667000Y650000D03*
X576500Y700000D03*
X703500Y700000D03*
D18*
X340700Y735400D03*
D19*
X340700Y684600D03*
D18*
X789900Y190700D03*
D19*
X840700Y190700D03*
D18*
X1075000Y184100D03*
D19*
X1075000Y234900D03*
M02*
