M48
;GenerationSoftware,Autodesk,EAGLE,9.6.0*%
;CreationDate,2020-04-04T10:35:05Z*%
FMAT,2
ICI,OFF
METRIC,TZ,000.000
T9C0.813
T8C0.880
T7C1.000
T6C1.118
T5C1.200
T4C1.397
T3C1.575
T2C1.850
T1C2.000
%
G90
M71
T1
X57650Y70000
X70350Y70000
T2
X107585Y57130
X94200Y18960
X98900Y18960
X89500Y18960
X78375Y57130
T3
X69090Y57100
X69090Y37034
T4
X67912Y19000
X41090Y19000
T5
X34070Y51150
X34070Y46070
X107500Y18410
X84070Y19070
X78990Y19070
X34070Y68460
X34070Y73540
X107500Y23490
X34070Y62290
X34070Y57210
X107500Y30460
X107500Y35540
T6
X37500Y30310
X84080Y36450
X73920Y36450
X67980Y30310
T7
X61300Y65000
X66700Y65000
X64000Y65000
T8
X47870Y50810
X47870Y43190
X55490Y43190
X55490Y45730
X55490Y48270
X55490Y50810
X47870Y45730
X47870Y48270
T9
X89800Y35540
X51200Y73540
X51200Y68460
X51200Y62310
X73920Y30170
X84080Y30170
X84120Y25170
X94280Y25170
X58920Y61830
X69080Y61830
X59000Y58480
X59000Y48320
X97530Y35540
X51200Y57230
X43830Y38120
X43830Y48280
X97530Y30460
X44470Y57210
X44470Y62290
X44470Y68460
X44470Y73540
X89800Y30460
M30